<svg width="33" height="33" viewBox="0 0 33 33" fill="none" xmlns="http://www.w3.org/2000/svg">
<path d="M16.3787 28.1948C12.284 28.1948 8.66433 26.0966 6.55148 22.9493C6.60062 19.6708 13.103 17.8676 16.3787 17.8676C19.6544 17.8676 26.1568 19.6708 26.2059 22.9493C24.0931 26.0966 20.4734 28.1948 16.3787 28.1948ZM16.3787 4.9177C17.6819 4.9177 18.9317 5.43582 19.8531 6.35806C20.7746 7.28031 21.2923 8.53115 21.2923 9.8354C21.2923 11.1397 20.7746 12.3905 19.8531 13.3127C18.9317 14.235 17.6819 14.7531 16.3787 14.7531C15.0755 14.7531 13.8257 14.235 12.9043 13.3127C11.9828 12.3905 11.4651 11.1397 11.4651 9.8354C11.4651 8.53115 11.9828 7.28031 12.9043 6.35806C13.8257 5.43582 15.0755 4.9177 16.3787 4.9177ZM16.3787 0C14.2278 0 12.098 0.424 10.1108 1.24779C8.12369 2.07158 6.31811 3.27904 4.79721 4.8012C1.72561 7.87536 0 12.0448 0 16.3923C0 20.7399 1.72561 24.9093 4.79721 27.9835C6.31811 29.5056 8.12369 30.7131 10.1108 31.5369C12.098 32.3607 14.2278 32.7847 16.3787 32.7847C20.7226 32.7847 24.8886 31.0576 27.9602 27.9835C31.0318 24.9093 32.7574 20.7399 32.7574 16.3923C32.7574 7.32737 25.387 0 16.3787 0Z" fill="#2A2828"/>
</svg>
