<svg width="33" height="33" viewBox="0 0 33 33" fill="none" xmlns="http://www.w3.org/2000/svg">
<!-- 전체 원형 배경 (흰색으로 변경) -->
<path d="M16.3787 0C14.2278 0 12.098 0.424 10.1108 1.24779C8.12369 2.07158 6.31811 3.27904 4.79721 4.8012C1.72561 7.87536 0 12.0448 0 16.3923C0 20.7399 1.72561 24.9093 4.79721 27.9835C6.31811 29.5056 8.12369 30.7131 10.1108 31.5369C12.098 32.3607 14.2278 32.7847 16.3787 32.7847C20.7226 32.7847 24.8886 31.0576 27.9602 27.9835C31.0318 24.9093 32.7574 20.7399 32.7574 16.3923C32.7574 7.32737 25.387 0 16.3787 0Z" fill="#FFFFFF"/>
<!-- 머리 부분 어두운 회색 원 -->
<circle cx="16.3787" cy="9.8354" r="4.9177" fill="#2A2828"/>
<!-- 몸통 부분 어두운 회색 -->
<path d="M16.3787 17.8676C13.103 17.8676 6.60062 19.6708 6.55148 22.9493C8.66433 26.0966 12.284 28.1948 16.3787 28.1948C20.4734 28.1948 24.0931 26.0966 26.2059 22.9493C26.1568 19.6708 19.6544 17.8676 16.3787 17.8676Z" fill="#2A2828"/>
</svg>
