<svg width="20" height="20" viewBox="0 0 20 20" fill="none" xmlns="http://www.w3.org/2000/svg">
<mask id="mask0_97_37" style="mask-type:luminance" maskUnits="userSpaceOnUse" x="0" y="0" width="20" height="20">
<path d="M20 0H0V20H20V0Z" fill="white"/>
</mask>
<g mask="url(#mask0_97_37)">
<path d="M19.6 10.2271C19.6 9.51804 19.5364 8.83624 19.4182 8.18164H10V12.0498H15.3818C15.15 13.2998 14.4455 14.3589 13.3864 15.068V17.5771H16.6182C18.5091 15.8362 19.6 13.2725 19.6 10.2271Z" fill="#4285F4"/>
<path d="M9.99988 20.0004C12.6999 20.0004 14.9635 19.1049 16.618 17.5777L13.3862 15.0686C12.4908 15.6686 11.3453 16.0231 9.99988 16.0231C7.39528 16.0231 5.19078 14.264 4.40438 11.9004H1.06348V14.4913C2.70898 17.7595 6.09078 20.0004 9.99988 20.0004Z" fill="#34A853"/>
<path d="M4.4045 11.8997C4.2045 11.2997 4.0909 10.6588 4.0909 9.99969C4.0909 9.34059 4.2045 8.69969 4.4045 8.09969V5.50879H1.0636C0.3864 6.85879 0 8.38609 0 9.99969C0 11.6133 0.3864 13.1406 1.0636 14.4906L4.4045 11.8997Z" fill="#FBBC04"/>
<path d="M9.99988 3.9773C11.468 3.9773 12.7862 4.4818 13.8226 5.4727L16.6908 2.6045C14.959 0.9909 12.6953 0 9.99988 0C6.09078 0 2.70898 2.2409 1.06348 5.5091L4.40438 8.1C5.19078 5.7364 7.39528 3.9773 9.99988 3.9773Z" fill="#E94235"/>
</g>
</svg>
