<svg width="51" height="51" viewBox="0 0 51 51" fill="none" xmlns="http://www.w3.org/2000/svg">
<path d="M5.66042 0H45.2834C48.3966 0 50.9438 2.51889 50.9438 5.66042V45.2834C50.9438 46.7834 50.3494 48.2268 49.274 49.274C48.2268 50.3494 46.7834 50.9438 45.2834 50.9438H5.66042C4.16041 50.9438 2.717 50.3494 1.66982 49.274C0.594344 48.2268 0 46.7834 0 45.2834V5.66042C0 2.51889 2.51889 0 5.66042 0ZM25.4719 39.6229L29.887 29.9436L39.6229 25.4719L29.887 21.0568L25.4719 11.3208L21.0285 21.0568L11.3208 25.4719L21.0285 29.9436L25.4719 39.6229Z" fill="#FFE364"/>
</svg>

