<svg width="33" height="33" viewBox="0 0 33 33" fill="none" xmlns="http://www.w3.org/2000/svg">
<path d="M16.5428 28.1948C12.4481 28.1948 8.82839 26.0966 6.71554 22.9493C6.76468 19.6708 13.267 17.8676 16.5428 17.8676C19.8185 17.8676 26.3208 19.6708 26.37 22.9493C24.2571 26.0966 20.6374 28.1948 16.5428 28.1948ZM16.5428 4.9177C17.8459 4.9177 19.0957 5.43582 20.0172 6.35806C20.9387 7.28031 21.4564 8.53115 21.4564 9.8354C21.4564 11.1397 20.9387 12.3905 20.0172 13.3127C19.0957 14.235 17.8459 14.7531 16.5428 14.7531C15.2396 14.7531 13.9898 14.235 13.0683 13.3127C12.1468 12.3905 11.6292 11.1397 11.6292 9.8354C11.6292 8.53115 12.1468 7.28031 13.0683 6.35806C13.9898 5.43582 15.2396 4.9177 16.5428 4.9177ZM16.5428 0C14.3919 0 12.2621 0.424 10.2749 1.24779C8.28775 2.07158 6.48218 3.27904 4.96127 4.8012C1.88967 7.87536 0.164063 12.0448 0.164062 16.3923C0.164063 20.7399 1.88967 24.9093 4.96127 27.9835C6.48218 29.5056 8.28775 30.7131 10.2749 31.5369C12.2621 32.3607 14.3919 32.7847 16.5428 32.7847C20.8867 32.7847 25.0527 31.0576 28.1243 27.9835C31.1959 24.9093 32.9215 20.7399 32.9215 16.3923C32.9215 7.32737 25.551 0 16.5428 0Z" fill="#2A2828"/>
</svg>
