<svg width="512" height="512" version="1.1" xmlns="http://www.w3.org/2000/svg" desc="Created with imagetracer.js version 1.2.6" ><path fill="rgb(0,0,0)" stroke="rgb(0,0,0)" stroke-width="1" opacity="0" d="M 0 0 L 512 0 L 512 512 L 0 512 L 0 0 Z M 51 57 L 39 63 Q 30 70 28 83 L 28 185 L 29 185 L 484 185 L 484 140 L 482 132 L 477 124 Q 472 116 462 114 L 306 114 L 250 59 L 246 57 L 51 57 Z M 28 213 L 28 430 L 30 438 L 35 446 Q 41 452 51 455 L 462 455 L 475 448 Q 482 442 484 430 L 484 213 L 28 213 Z " /><path fill="rgb(0,0,0)" stroke="rgb(0,0,0)" stroke-width="1" opacity="0.7019607843137254" d="M 50.5 57 L 53 57.5 L 50.5 58 L 50.5 57 Z " /><path fill="rgb(0,0,0)" stroke="rgb(0,0,0)" stroke-width="1" opacity="0.7019607843137254" d="M 41.5 61 L 40.5 63 L 41.5 61 Z " /><path fill="rgb(0,0,0)" stroke="rgb(0,0,0)" stroke-width="1" opacity="0.7019607843137254" d="M 38.5 63 L 35.5 67 L 38.5 63 Z " /><path fill="rgb(0,0,0)" stroke="rgb(0,0,0)" stroke-width="1" opacity="0.7019607843137254" d="M 33.5 69 L 32.5 71 L 33.5 69 Z " /><path fill="rgb(0,0,0)" stroke="rgb(0,0,0)" stroke-width="1" opacity="0.7019607843137254" d="M 28.5 82 L 29 184.5 L 28 184.5 L 28.5 82 Z " /><path fill="rgb(0,0,0)" stroke="rgb(0,0,0)" stroke-width="1" opacity="0.7019607843137254" d="M 473.5 120 L 476.5 124 L 473.5 120 Z " /><path fill="rgb(0,0,0)" stroke="rgb(0,0,0)" stroke-width="1" opacity="0.7019607843137254" d="M 478.5 126 L 479.5 128 L 478.5 126 Z " /><path fill="rgb(0,0,0)" stroke="rgb(0,0,0)" stroke-width="1" opacity="0.7019607843137254" d="M 483.5 139 L 484 184.5 L 483 184.5 L 483.5 139 Z " /><path fill="rgb(0,0,0)" stroke="rgb(0,0,0)" stroke-width="1" opacity="0.7019607843137254" d="M 28 213 L 484 213 L 484 429.5 L 483 429.5 L 483 214 L 29 214 L 28.5 430 L 28 213 Z " /><path fill="rgb(0,0,0)" stroke="rgb(0,0,0)" stroke-width="1" opacity="0.7019607843137254" d="M 35.5 445 L 37.5 448 L 35.5 445 Z " /><path fill="rgb(0,0,0)" stroke="rgb(0,0,0)" stroke-width="1" opacity="0.7019607843137254" d="M 476.5 445 L 474.5 448 L 476.5 445 Z " /><path fill="rgb(0,0,0)" stroke="rgb(0,0,0)" stroke-width="1" opacity="0.7019607843137254" d="M 40.5 449 L 41.5 451 L 40.5 449 Z " /><path fill="rgb(0,0,0)" stroke="rgb(0,0,0)" stroke-width="1" opacity="0.7019607843137254" d="M 471.5 449 L 470.5 451 L 471.5 449 Z " /><path fill="rgb(0,0,0)" stroke="rgb(0,0,0)" stroke-width="1" opacity="0.7019607843137254" d="M 50.5 454 L 53 454.5 L 50.5 455 L 50.5 454 Z " /><path fill="rgb(0,0,0)" stroke="rgb(0,0,0)" stroke-width="1" opacity="0.7019607843137254" d="M 459.5 454 L 462 454.5 L 459.5 455 L 459.5 454 Z " /><path fill="rgb(0,0,0)" stroke="rgb(0,0,0)" stroke-width="1" opacity="1" d="M 53.5 57 L 243.5 57 L 250.5 60 L 304.5 114 L 459.5 114 Q 472.1 116.4 478 125.5 L 483 136.5 L 483 185 L 29.5 185 L 29 184.5 L 29 79.5 Q 31.6 68.6 39.5 63 L 53.5 57 Z " /><path fill="rgb(0,0,0)" stroke="rgb(0,0,0)" stroke-width="1" opacity="1" d="M 29 214 L 483 214 L 483 432.5 Q 480.4 443.4 472.5 449 L 458.5 455 L 53.5 455 Q 40.6 452.4 34 443.5 L 29 432.5 L 29 214 Z " /></svg>