<svg width="512" height="512" version="1.1" xmlns="http://www.w3.org/2000/svg" desc="Created with imagetracer.js version 1.2.6" ><path fill="rgb(0,0,0)" stroke="rgb(0,0,0)" stroke-width="1" opacity="0.803921568627451" d="M 236.5 7 L 276 7.5 L 236.5 8 L 236.5 7 Z " /><path fill="rgb(0,0,0)" stroke="rgb(0,0,0)" stroke-width="1" opacity="0.803921568627451" d="M 280.5 9 L 283 12.5 L 282 12.5 L 280.5 9 Z " /><path fill="rgb(0,0,0)" stroke="rgb(0,0,0)" stroke-width="1" opacity="0.803921568627451" d="M 336.5 32 L 340 32.5 L 336.5 33 L 336.5 32 Z " /><path fill="rgb(0,0,0)" stroke="rgb(0,0,0)" stroke-width="1" opacity="0.803921568627451" d="M 169.5 35 L 140.5 65 L 169.5 35 Z " /><path fill="rgb(0,0,0)" stroke="rgb(0,0,0)" stroke-width="1" opacity="0.803921568627451" d="M 220.5 39 L 221 40.5 L 219 41.5 L 220.5 39 Z " /><path fill="rgb(0,0,0)" stroke="rgb(0,0,0)" stroke-width="1" opacity="0.803921568627451" d="M 371.5 63 L 373 65.5 L 372 65.5 L 371.5 63 Z " /><path fill="rgb(0,0,0)" stroke="rgb(0,0,0)" stroke-width="1" opacity="0.803921568627451" d="M 248.5 87 L 253 87.5 L 248.5 88 L 248.5 87 Z " /><path fill="rgb(0,0,0)" stroke="rgb(0,0,0)" stroke-width="1" opacity="0.803921568627451" d="M 259.5 87 L 264 87.5 L 259.5 88 L 259.5 87 Z " /><path fill="rgb(0,0,0)" stroke="rgb(0,0,0)" stroke-width="1" opacity="0.803921568627451" d="M 222.5 96 L 221.5 98 L 222.5 96 Z " /><path fill="rgb(0,0,0)" stroke="rgb(0,0,0)" stroke-width="1" opacity="0.803921568627451" d="M 219.5 98 L 218.5 100 L 219.5 98 Z " /><path fill="rgb(0,0,0)" stroke="rgb(0,0,0)" stroke-width="1" opacity="0.803921568627451" d="M 292.5 98 L 293.5 100 L 292.5 98 Z " /><path fill="rgb(0,0,0)" stroke="rgb(0,0,0)" stroke-width="1" opacity="0.803921568627451" d="M 216.5 100 L 212.5 105 L 216.5 100 Z " /><path fill="rgb(0,0,0)" stroke="rgb(0,0,0)" stroke-width="1" opacity="0.803921568627451" d="M 295.5 100 L 299.5 105 L 295.5 100 Z " /><path fill="rgb(0,0,0)" stroke="rgb(0,0,0)" stroke-width="1" opacity="0.803921568627451" d="M 209.5 107 L 205.5 112 L 209.5 107 Z " /><path fill="rgb(0,0,0)" stroke="rgb(0,0,0)" stroke-width="1" opacity="0.803921568627451" d="M 302.5 107 L 306.5 112 L 302.5 107 Z " /><path fill="rgb(0,0,0)" stroke="rgb(0,0,0)" stroke-width="1" opacity="0.803921568627451" d="M 203.5 114 L 202.5 116 L 203.5 114 Z " /><path fill="rgb(0,0,0)" stroke="rgb(0,0,0)" stroke-width="1" opacity="0.803921568627451" d="M 308.5 114 L 309.5 116 L 308.5 114 Z " /><path fill="rgb(0,0,0)" stroke="rgb(0,0,0)" stroke-width="1" opacity="0.803921568627451" d="M 146.5 115 L 145.5 117 L 144 116.5 L 146.5 115 Z " /><path fill="rgb(0,0,0)" stroke="rgb(0,0,0)" stroke-width="1" opacity="0.803921568627451" d="M 200.5 119 L 199.5 121 L 200.5 119 Z " /><path fill="rgb(0,0,0)" stroke="rgb(0,0,0)" stroke-width="1" opacity="0.803921568627451" d="M 311.5 119 L 312.5 121 L 311.5 119 Z " /><path fill="rgb(0,0,0)" stroke="rgb(0,0,0)" stroke-width="1" opacity="0.803921568627451" d="M 198.5 122 L 199 123.5 L 197.5 126 L 197 124.5 L 198.5 122 Z " /><path fill="rgb(0,0,0)" stroke="rgb(0,0,0)" stroke-width="1" opacity="0.803921568627451" d="M 396.5 125 L 397.5 127 L 396.5 125 Z " /><path fill="rgb(0,0,0)" stroke="rgb(0,0,0)" stroke-width="1" opacity="0.803921568627451" d="M 399.5 130 L 400 172.5 L 399 172.5 L 399.5 130 Z " /><path fill="rgb(0,0,0)" stroke="rgb(0,0,0)" stroke-width="1" opacity="0.803921568627451" d="M 112.5 131 L 113 172.5 L 112 172.5 L 112.5 131 Z " /><path fill="rgb(0,0,0)" stroke="rgb(0,0,0)" stroke-width="1" opacity="0.803921568627451" d="M 192.5 141 L 193 143.5 L 192 143.5 L 192.5 141 Z " /><path fill="rgb(0,0,0)" stroke="rgb(0,0,0)" stroke-width="1" opacity="0.803921568627451" d="M 319.5 141 L 320 143.5 L 319 143.5 L 319.5 141 Z " /><path fill="rgb(0,0,0)" stroke="rgb(0,0,0)" stroke-width="1" opacity="0.803921568627451" d="M 319.5 158 L 320 161.5 L 319 161.5 L 319.5 158 Z " /><path fill="rgb(0,0,0)" stroke="rgb(0,0,0)" stroke-width="1" opacity="0.803921568627451" d="M 192.5 159 L 193 161.5 L 192 161.5 L 192.5 159 Z " /><path fill="rgb(0,0,0)" stroke="rgb(0,0,0)" stroke-width="1" opacity="0.803921568627451" d="M 113.5 174 L 115.5 177 L 113.5 174 Z " /><path fill="rgb(0,0,0)" stroke="rgb(0,0,0)" stroke-width="1" opacity="0.803921568627451" d="M 398.5 174 L 396.5 177 L 398.5 174 Z " /><path fill="rgb(0,0,0)" stroke="rgb(0,0,0)" stroke-width="1" opacity="0.803921568627451" d="M 201.5 185 L 202.5 187 L 201.5 185 Z " /><path fill="rgb(0,0,0)" stroke="rgb(0,0,0)" stroke-width="1" opacity="0.803921568627451" d="M 310.5 185 L 309.5 187 L 310.5 185 Z " /><path fill="rgb(0,0,0)" stroke="rgb(0,0,0)" stroke-width="1" opacity="0.803921568627451" d="M 203.5 188 L 204.5 190 L 203.5 188 Z " /><path fill="rgb(0,0,0)" stroke="rgb(0,0,0)" stroke-width="1" opacity="0.803921568627451" d="M 308.5 188 L 307.5 190 L 308.5 188 Z " /><path fill="rgb(0,0,0)" stroke="rgb(0,0,0)" stroke-width="1" opacity="0.803921568627451" d="M 206.5 192 L 214.5 201 L 206.5 192 Z " /><path fill="rgb(0,0,0)" stroke="rgb(0,0,0)" stroke-width="1" opacity="0.803921568627451" d="M 305.5 192 L 297.5 201 L 305.5 192 Z " /><path fill="rgb(0,0,0)" stroke="rgb(0,0,0)" stroke-width="1" opacity="0.803921568627451" d="M 217.5 202 L 218.5 204 L 217.5 202 Z " /><path fill="rgb(0,0,0)" stroke="rgb(0,0,0)" stroke-width="1" opacity="0.803921568627451" d="M 294.5 202 L 293.5 204 L 294.5 202 Z " /><path fill="rgb(0,0,0)" stroke="rgb(0,0,0)" stroke-width="1" opacity="0.803921568627451" d="M 291.5 204 L 290.5 206 L 291.5 204 Z " /><path fill="rgb(0,0,0)" stroke="rgb(0,0,0)" stroke-width="1" opacity="0.803921568627451" d="M 361.5 208 L 362.5 210 L 361.5 208 Z " /><path fill="rgb(0,0,0)" stroke="rgb(0,0,0)" stroke-width="1" opacity="0.803921568627451" d="M 243.5 214 L 246 214.5 L 243.5 215 L 243.5 214 Z " /><path fill="rgb(0,0,0)" stroke="rgb(0,0,0)" stroke-width="1" opacity="0.803921568627451" d="M 266.5 214 L 269 214.5 L 266.5 215 L 266.5 214 Z " /><path fill="rgb(0,0,0)" stroke="rgb(0,0,0)" stroke-width="1" opacity="0.803921568627451" d="M 251.5 215 L 261 215.5 L 251.5 216 L 251.5 215 Z " /><path fill="rgb(0,0,0)" stroke="rgb(0,0,0)" stroke-width="1" opacity="0.803921568627451" d="M 371.5 227 L 372.5 229 L 371.5 227 Z " /><path fill="rgb(0,0,0)" stroke="rgb(0,0,0)" stroke-width="1" opacity="0.803921568627451" d="M 373.5 235 L 374 236.5 L 372 237.5 L 373.5 235 Z " /><path fill="rgb(0,0,0)" stroke="rgb(0,0,0)" stroke-width="1" opacity="0.803921568627451" d="M 172.5 268 L 176 268.5 L 172.5 269 L 172.5 268 Z " /><path fill="rgb(0,0,0)" stroke="rgb(0,0,0)" stroke-width="1" opacity="0.803921568627451" d="M 337.5 268 L 341 268.5 L 337.5 269 L 337.5 268 Z " /><path fill="rgb(0,0,0)" stroke="rgb(0,0,0)" stroke-width="1" opacity="0.803921568627451" d="M 230.5 291 L 235 294.5 L 233.5 295 L 230.5 291 Z " /><path fill="rgb(0,0,0)" stroke="rgb(0,0,0)" stroke-width="1" opacity="0.803921568627451" d="M 279.5 293 L 278.5 295 L 277 294.5 L 279.5 293 Z " /><path fill="rgb(0,0,0)" stroke="rgb(0,0,0)" stroke-width="1" opacity="0.803921568627451" d="M 248.5 309 L 249 334.5 L 248 334.5 L 248.5 309 Z " /><path fill="rgb(0,0,0)" stroke="rgb(0,0,0)" stroke-width="1" opacity="0.803921568627451" d="M 263.5 309 L 264 334.5 L 263 334.5 L 263.5 309 Z " /><path fill="rgb(0,0,0)" stroke="rgb(0,0,0)" stroke-width="1" opacity="0.803921568627451" d="M 100.5 335 L 105 335.5 L 100.5 336 L 100.5 335 Z " /><path fill="rgb(0,0,0)" stroke="rgb(0,0,0)" stroke-width="1" opacity="0.803921568627451" d="M 407.5 335 L 412 335.5 L 407.5 336 L 407.5 335 Z " /><path fill="rgb(0,0,0)" stroke="rgb(0,0,0)" stroke-width="1" opacity="0.803921568627451" d="M 88.5 340 L 87.5 342 L 88.5 340 Z " /><path fill="rgb(0,0,0)" stroke="rgb(0,0,0)" stroke-width="1" opacity="0.803921568627451" d="M 423.5 340 L 424.5 342 L 423.5 340 Z " /><path fill="rgb(0,0,0)" stroke="rgb(0,0,0)" stroke-width="1" opacity="0.803921568627451" d="M 84.5 343 L 81.5 347 L 84.5 343 Z " /><path fill="rgb(0,0,0)" stroke="rgb(0,0,0)" stroke-width="1" opacity="0.803921568627451" d="M 427.5 343 L 429.5 346 L 427.5 343 Z " /><path fill="rgb(0,0,0)" stroke="rgb(0,0,0)" stroke-width="1" opacity="0.803921568627451" d="M 80.5 348 L 79.5 350 L 80.5 348 Z " /><path fill="rgb(0,0,0)" stroke="rgb(0,0,0)" stroke-width="1" opacity="0.803921568627451" d="M 431.5 348 L 432.5 350 L 431.5 348 Z " /><path fill="rgb(0,0,0)" stroke="rgb(0,0,0)" stroke-width="1" opacity="0.803921568627451" d="M 248.5 350 L 249 377 L 263 377 L 263 350.5 L 264 350.5 L 264 378 L 248 378 L 248.5 350 Z " /><path fill="rgb(0,0,0)" stroke="rgb(0,0,0)" stroke-width="1" opacity="0.803921568627451" d="M 78.5 351 L 77.5 353 L 78.5 351 Z " /><path fill="rgb(0,0,0)" stroke="rgb(0,0,0)" stroke-width="1" opacity="0.803921568627451" d="M 433.5 351 L 434.5 353 L 433.5 351 Z " /><path fill="rgb(0,0,0)" stroke="rgb(0,0,0)" stroke-width="1" opacity="0.803921568627451" d="M 96.5 352 L 91.5 358 L 96.5 352 Z " /><path fill="rgb(0,0,0)" stroke="rgb(0,0,0)" stroke-width="1" opacity="0.803921568627451" d="M 416.5 353 L 419.5 357 L 416.5 353 Z " /><path fill="rgb(0,0,0)" stroke="rgb(0,0,0)" stroke-width="1" opacity="0.803921568627451" d="M 420.5 358 L 421.5 360 L 420.5 358 Z " /><path fill="rgb(0,0,0)" stroke="rgb(0,0,0)" stroke-width="1" opacity="0.803921568627451" d="M 74.5 360 L 75 362.5 L 74 362.5 L 74.5 360 Z " /><path fill="rgb(0,0,0)" stroke="rgb(0,0,0)" stroke-width="1" opacity="0.803921568627451" d="M 437.5 360 L 438 362.5 L 437 362.5 L 437.5 360 Z " /><path fill="rgb(0,0,0)" stroke="rgb(0,0,0)" stroke-width="1" opacity="0.803921568627451" d="M 88.5 366 L 89 379 L 86 378.5 L 88 378 L 88.5 366 Z " /><path fill="rgb(0,0,0)" stroke="rgb(0,0,0)" stroke-width="1" opacity="0.803921568627451" d="M 423.5 366 L 424 378 L 426 378.5 L 423 379 L 423.5 366 Z " /><path fill="rgb(0,0,0)" stroke="rgb(0,0,0)" stroke-width="1" opacity="0.803921568627451" d="M 74.5 378 L 77 378.5 L 74.5 379 L 74.5 378 Z " /><path fill="rgb(0,0,0)" stroke="rgb(0,0,0)" stroke-width="1" opacity="0.803921568627451" d="M 435.5 378 L 438 378.5 L 435.5 379 L 435.5 378 Z " /><path fill="rgb(0,0,0)" stroke="rgb(0,0,0)" stroke-width="1" opacity="0.803921568627451" d="M 74.5 393 L 80 393.5 L 74.5 394 L 74.5 393 Z " /><path fill="rgb(0,0,0)" stroke="rgb(0,0,0)" stroke-width="1" opacity="0.803921568627451" d="M 83.5 393 L 89 393.5 L 83.5 394 L 83.5 393 Z " /><path fill="rgb(0,0,0)" stroke="rgb(0,0,0)" stroke-width="1" opacity="0.803921568627451" d="M 248.5 393 L 255 393.5 L 248.5 394 L 248.5 393 Z " /><path fill="rgb(0,0,0)" stroke="rgb(0,0,0)" stroke-width="1" opacity="0.803921568627451" d="M 257.5 393 L 264 393.5 L 257.5 394 L 257.5 393 Z " /><path fill="rgb(0,0,0)" stroke="rgb(0,0,0)" stroke-width="1" opacity="0.803921568627451" d="M 423.5 393 L 429 393.5 L 423.5 394 L 423.5 393 Z " /><path fill="rgb(0,0,0)" stroke="rgb(0,0,0)" stroke-width="1" opacity="0.803921568627451" d="M 432.5 393 L 438 393.5 L 432.5 394 L 432.5 393 Z " /><path fill="rgb(0,0,0)" stroke="rgb(0,0,0)" stroke-width="1" opacity="0.803921568627451" d="M 107.5 399 L 108.5 401 L 107.5 399 Z " /><path fill="rgb(0,0,0)" stroke="rgb(0,0,0)" stroke-width="1" opacity="0.803921568627451" d="M 404.5 399 L 403.5 401 L 404.5 399 Z " /><path fill="rgb(0,0,0)" stroke="rgb(0,0,0)" stroke-width="1" opacity="0.803921568627451" d="M 53.5 400 L 52.5 402 L 53.5 400 Z " /><path fill="rgb(0,0,0)" stroke="rgb(0,0,0)" stroke-width="1" opacity="0.803921568627451" d="M 458.5 400 L 459.5 402 L 458.5 400 Z " /><path fill="rgb(0,0,0)" stroke="rgb(0,0,0)" stroke-width="1" opacity="0.803921568627451" d="M 226.5 401 L 225.5 403 L 226.5 401 Z " /><path fill="rgb(0,0,0)" stroke="rgb(0,0,0)" stroke-width="1" opacity="0.803921568627451" d="M 285.5 401 L 286.5 403 L 285.5 401 Z " /><path fill="rgb(0,0,0)" stroke="rgb(0,0,0)" stroke-width="1" opacity="0.803921568627451" d="M 112.5 402 L 113.5 404 L 112.5 402 Z " /><path fill="rgb(0,0,0)" stroke="rgb(0,0,0)" stroke-width="1" opacity="0.803921568627451" d="M 399.5 402 L 397.5 405 L 399.5 402 Z " /><path fill="rgb(0,0,0)" stroke="rgb(0,0,0)" stroke-width="1" opacity="0.803921568627451" d="M 223.5 403 L 222.5 405 L 223.5 403 Z " /><path fill="rgb(0,0,0)" stroke="rgb(0,0,0)" stroke-width="1" opacity="0.803921568627451" d="M 288.5 403 L 289.5 405 L 288.5 403 Z " /><path fill="rgb(0,0,0)" stroke="rgb(0,0,0)" stroke-width="1" opacity="0.803921568627451" d="M 47.5 404 L 45.5 407 L 47.5 404 Z " /><path fill="rgb(0,0,0)" stroke="rgb(0,0,0)" stroke-width="1" opacity="0.803921568627451" d="M 464.5 404 L 466.5 407 L 464.5 404 Z " /><path fill="rgb(0,0,0)" stroke="rgb(0,0,0)" stroke-width="1" opacity="0.803921568627451" d="M 116.5 405 L 124.5 414 L 116.5 405 Z " /><path fill="rgb(0,0,0)" stroke="rgb(0,0,0)" stroke-width="1" opacity="0.803921568627451" d="M 395.5 405 L 387.5 414 L 395.5 405 Z " /><path fill="rgb(0,0,0)" stroke="rgb(0,0,0)" stroke-width="1" opacity="0.803921568627451" d="M 218.5 407 L 214.5 412 L 218.5 407 Z " /><path fill="rgb(0,0,0)" stroke="rgb(0,0,0)" stroke-width="1" opacity="0.803921568627451" d="M 293.5 407 L 297.5 412 L 293.5 407 Z " /><path fill="rgb(0,0,0)" stroke="rgb(0,0,0)" stroke-width="1" opacity="0.803921568627451" d="M 39.5 412 L 37.5 415 L 39.5 412 Z " /><path fill="rgb(0,0,0)" stroke="rgb(0,0,0)" stroke-width="1" opacity="0.803921568627451" d="M 472.5 412 L 474.5 415 L 472.5 412 Z " /><path fill="rgb(0,0,0)" stroke="rgb(0,0,0)" stroke-width="1" opacity="0.803921568627451" d="M 212.5 414 L 210.5 417 L 212.5 414 Z " /><path fill="rgb(0,0,0)" stroke="rgb(0,0,0)" stroke-width="1" opacity="0.803921568627451" d="M 299.5 414 L 301.5 417 L 299.5 414 Z " /><path fill="rgb(0,0,0)" stroke="rgb(0,0,0)" stroke-width="1" opacity="0.803921568627451" d="M 126.5 416 L 127.5 418 L 126.5 416 Z " /><path fill="rgb(0,0,0)" stroke="rgb(0,0,0)" stroke-width="1" opacity="0.803921568627451" d="M 385.5 416 L 384.5 418 L 385.5 416 Z " /><path fill="rgb(0,0,0)" stroke="rgb(0,0,0)" stroke-width="1" opacity="0.803921568627451" d="M 35.5 417 L 34.5 419 L 35.5 417 Z " /><path fill="rgb(0,0,0)" stroke="rgb(0,0,0)" stroke-width="1" opacity="0.803921568627451" d="M 476.5 417 L 477.5 419 L 476.5 417 Z " /><path fill="rgb(0,0,0)" stroke="rgb(0,0,0)" stroke-width="1" opacity="0.803921568627451" d="M 209.5 418 L 208.5 420 L 209.5 418 Z " /><path fill="rgb(0,0,0)" stroke="rgb(0,0,0)" stroke-width="1" opacity="0.803921568627451" d="M 302.5 418 L 303.5 420 L 302.5 418 Z " /><path fill="rgb(0,0,0)" stroke="rgb(0,0,0)" stroke-width="1" opacity="0.803921568627451" d="M 129.5 421 L 130.5 423 L 129.5 421 Z " /><path fill="rgb(0,0,0)" stroke="rgb(0,0,0)" stroke-width="1" opacity="0.803921568627451" d="M 382.5 421 L 381.5 423 L 382.5 421 Z " /><path fill="rgb(0,0,0)" stroke="rgb(0,0,0)" stroke-width="1" opacity="0.803921568627451" d="M 380.5 424 L 381 425.5 L 379.5 428 L 379 426.5 L 380.5 424 Z " /><path fill="rgb(0,0,0)" stroke="rgb(0,0,0)" stroke-width="1" opacity="0.803921568627451" d="M 376.5 435 L 377 437.5 L 376 437.5 L 376.5 435 Z " /><path fill="rgb(0,0,0)" stroke="rgb(0,0,0)" stroke-width="1" opacity="0.803921568627451" d="M 201.5 437 L 202 439.5 L 201 439.5 L 201.5 437 Z " /><path fill="rgb(0,0,0)" stroke="rgb(0,0,0)" stroke-width="1" opacity="0.803921568627451" d="M 310.5 437 L 311 439.5 L 310 439.5 L 310.5 437 Z " /><path fill="rgb(0,0,0)" stroke="rgb(0,0,0)" stroke-width="1" opacity="0.803921568627451" d="M 26.5 438 L 27 441.5 L 26 441.5 L 26.5 438 Z " /><path fill="rgb(0,0,0)" stroke="rgb(0,0,0)" stroke-width="1" opacity="0.803921568627451" d="M 485.5 438 L 486 441.5 L 485 441.5 L 485.5 438 Z " /><path fill="rgb(0,0,0)" stroke="rgb(0,0,0)" stroke-width="1" opacity="0.803921568627451" d="M 136.5 441 L 137 445.5 L 136 445.5 L 136.5 441 Z " /><path fill="rgb(0,0,0)" stroke="rgb(0,0,0)" stroke-width="1" opacity="0.803921568627451" d="M 375.5 441 L 376 445.5 L 375 445.5 L 375.5 441 Z " /><path fill="rgb(0,0,0)" stroke="rgb(0,0,0)" stroke-width="1" opacity="0.803921568627451" d="M 200.5 443 L 201 454.5 L 200 454.5 L 200.5 443 Z " /><path fill="rgb(0,0,0)" stroke="rgb(0,0,0)" stroke-width="1" opacity="0.803921568627451" d="M 311.5 443 L 312 454.5 L 311 454.5 L 311.5 443 Z " /><path fill="rgb(0,0,0)" stroke="rgb(0,0,0)" stroke-width="1" opacity="0.803921568627451" d="M 136.5 451 L 137 456.5 L 136 456.5 L 136.5 451 Z " /><path fill="rgb(0,0,0)" stroke="rgb(0,0,0)" stroke-width="1" opacity="0.803921568627451" d="M 375.5 451 L 376 456.5 L 375 456.5 L 375.5 451 Z " /><path fill="rgb(0,0,0)" stroke="rgb(0,0,0)" stroke-width="1" opacity="0.803921568627451" d="M 26.5 456 L 27 458.5 L 26 458.5 L 26.5 456 Z " /><path fill="rgb(0,0,0)" stroke="rgb(0,0,0)" stroke-width="1" opacity="0.803921568627451" d="M 485.5 456 L 486 458.5 L 485 458.5 L 485.5 456 Z " /><path fill="rgb(0,0,0)" stroke="rgb(0,0,0)" stroke-width="1" opacity="0.803921568627451" d="M 201.5 458 L 202 460.5 L 201 460.5 L 201.5 458 Z " /><path fill="rgb(0,0,0)" stroke="rgb(0,0,0)" stroke-width="1" opacity="0.803921568627451" d="M 310.5 458 L 311 460.5 L 310 460.5 L 310.5 458 Z " /><path fill="rgb(0,0,0)" stroke="rgb(0,0,0)" stroke-width="1" opacity="0.803921568627451" d="M 206.5 473 L 208 475.5 L 206 474.5 L 206.5 473 Z " /><path fill="rgb(0,0,0)" stroke="rgb(0,0,0)" stroke-width="1" opacity="0.803921568627451" d="M 305.5 473 L 306 474.5 L 304 475.5 L 305.5 473 Z " /><path fill="rgb(0,0,0)" stroke="rgb(0,0,0)" stroke-width="1" opacity="0.803921568627451" d="M 33.5 477 L 34.5 479 L 33.5 477 Z " /><path fill="rgb(0,0,0)" stroke="rgb(0,0,0)" stroke-width="1" opacity="0.803921568627451" d="M 128.5 478 L 127.5 480 L 128.5 478 Z " /><path fill="rgb(0,0,0)" stroke="rgb(0,0,0)" stroke-width="1" opacity="0.803921568627451" d="M 383.5 478 L 384.5 480 L 383.5 478 Z " /><path fill="rgb(0,0,0)" stroke="rgb(0,0,0)" stroke-width="1" opacity="0.803921568627451" d="M 209.5 479 L 210.5 481 L 209.5 479 Z " /><path fill="rgb(0,0,0)" stroke="rgb(0,0,0)" stroke-width="1" opacity="0.803921568627451" d="M 302.5 479 L 301.5 481 L 302.5 479 Z " /><path fill="rgb(0,0,0)" stroke="rgb(0,0,0)" stroke-width="1" opacity="0.803921568627451" d="M 35.5 480 L 36.5 482 L 35.5 480 Z " /><path fill="rgb(0,0,0)" stroke="rgb(0,0,0)" stroke-width="1" opacity="0.803921568627451" d="M 476.5 480 L 475.5 482 L 476.5 480 Z " /><path fill="rgb(0,0,0)" stroke="rgb(0,0,0)" stroke-width="1" opacity="0.803921568627451" d="M 125.5 482 L 124.5 484 L 125.5 482 Z " /><path fill="rgb(0,0,0)" stroke="rgb(0,0,0)" stroke-width="1" opacity="0.803921568627451" d="M 386.5 482 L 387.5 484 L 386.5 482 Z " /><path fill="rgb(0,0,0)" stroke="rgb(0,0,0)" stroke-width="1" opacity="0.803921568627451" d="M 212.5 483 L 215.5 487 L 212.5 483 Z " /><path fill="rgb(0,0,0)" stroke="rgb(0,0,0)" stroke-width="1" opacity="0.803921568627451" d="M 299.5 483 L 296.5 487 L 299.5 483 Z " /><path fill="rgb(0,0,0)" stroke="rgb(0,0,0)" stroke-width="1" opacity="0.803921568627451" d="M 38.5 484 L 45.5 492 L 38.5 484 Z " /><path fill="rgb(0,0,0)" stroke="rgb(0,0,0)" stroke-width="1" opacity="0.803921568627451" d="M 473.5 484 L 466.5 492 L 473.5 484 Z " /><path fill="rgb(0,0,0)" stroke="rgb(0,0,0)" stroke-width="1" opacity="0.803921568627451" d="M 294.5 488 L 290.5 493 L 294.5 488 Z " /><path fill="rgb(0,0,0)" stroke="rgb(0,0,0)" stroke-width="1" opacity="0.803921568627451" d="M 218.5 489 L 221.5 493 L 218.5 489 Z " /><path fill="rgb(0,0,0)" stroke="rgb(0,0,0)" stroke-width="1" opacity="0.803921568627451" d="M 116.5 491 L 114.5 494 L 116.5 491 Z " /><path fill="rgb(0,0,0)" stroke="rgb(0,0,0)" stroke-width="1" opacity="0.803921568627451" d="M 396.5 492 L 397.5 494 L 396.5 492 Z " /><path fill="rgb(0,0,0)" stroke="rgb(0,0,0)" stroke-width="1" opacity="0.803921568627451" d="M 48.5 493 L 49.5 495 L 48.5 493 Z " /><path fill="rgb(0,0,0)" stroke="rgb(0,0,0)" stroke-width="1" opacity="0.803921568627451" d="M 223.5 493 L 224.5 495 L 223.5 493 Z " /><path fill="rgb(0,0,0)" stroke="rgb(0,0,0)" stroke-width="1" opacity="0.803921568627451" d="M 463.5 493 L 462.5 495 L 463.5 493 Z " /><path fill="rgb(0,0,0)" stroke="rgb(0,0,0)" stroke-width="1" opacity="0.803921568627451" d="M 287.5 494 L 286.5 496 L 287.5 494 Z " /><path fill="rgb(0,0,0)" stroke="rgb(0,0,0)" stroke-width="1" opacity="0.803921568627451" d="M 399.5 494 L 400.5 496 L 399.5 494 Z " /><path fill="rgb(0,0,0)" stroke="rgb(0,0,0)" stroke-width="1" opacity="0.803921568627451" d="M 460.5 495 L 459.5 497 L 460.5 495 Z " /><path fill="rgb(0,0,0)" stroke="rgb(0,0,0)" stroke-width="1" opacity="0.803921568627451" d="M 109.5 496 L 108.5 498 L 109.5 496 Z " /><path fill="rgb(0,0,0)" stroke="rgb(0,0,0)" stroke-width="1" opacity="0.803921568627451" d="M 402.5 496 L 403.5 498 L 402.5 496 Z " /><path fill="rgb(0,0,0)" stroke="rgb(0,0,0)" stroke-width="1" opacity="0.803921568627451" d="M 70.5 503 L 74 503.5 L 70.5 504 L 70.5 503 Z " /><path fill="rgb(0,0,0)" stroke="rgb(0,0,0)" stroke-width="1" opacity="0.803921568627451" d="M 89.5 503 L 92 503.5 L 89.5 504 L 89.5 503 Z " /><path fill="rgb(0,0,0)" stroke="rgb(0,0,0)" stroke-width="1" opacity="0.803921568627451" d="M 245.5 503 L 248 503.5 L 245.5 504 L 245.5 503 Z " /><path fill="rgb(0,0,0)" stroke="rgb(0,0,0)" stroke-width="1" opacity="0.803921568627451" d="M 264.5 503 L 267 503.5 L 264.5 504 L 264.5 503 Z " /><path fill="rgb(0,0,0)" stroke="rgb(0,0,0)" stroke-width="1" opacity="0.803921568627451" d="M 420.5 503 L 423 503.5 L 420.5 504 L 420.5 503 Z " /><path fill="rgb(0,0,0)" stroke="rgb(0,0,0)" stroke-width="1" opacity="0.803921568627451" d="M 438.5 503 L 441 503.5 L 438.5 504 L 438.5 503 Z " /><path fill="rgb(0,0,0)" stroke="rgb(0,0,0)" stroke-width="1" opacity="0" d="M 0 0 L 512 0 L 512 512 L 0 512 L 0 0 Z M 237 7 L 234 8 L 229 14 L 220 41 L 205 48 L 177 34 L 170 35 L 140 65 L 138 70 L 153 101 L 147 115 L 144 117 L 114 127 L 112 132 L 112 173 L 113 175 L 123 180 L 146 187 Q 148 197 153 204 L 138 234 L 139 237 L 173 269 L 176 269 L 203 255 L 209 256 L 220 261 L 230 292 L 234 295 L 279 295 L 284 289 L 293 261 Q 301 260 308 255 L 311 255 L 338 269 L 343 268 L 374 237 L 374 231 L 359 204 L 366 187 L 397 177 L 400 173 L 400 131 L 398 127 L 393 123 L 366 115 Q 364 105 359 99 L 374 69 L 373 65 L 340 32 L 337 32 L 310 46 L 306 46 L 292 40 L 283 12 L 276 7 L 237 7 Z M 248 309 L 248 335 L 101 335 L 85 343 Q 77 349 74 361 L 74 379 L 78 378 Q 85 377 89 379 L 89 364 L 91 359 Q 95 352 104 350 L 248 350 L 248 351 L 248 378 L 264 378 L 264 350 L 409 350 L 416 353 Q 421 357 423 364 L 423 379 L 427 378 Q 434 377 438 379 L 438 361 Q 436 351 430 346 Q 423 338 412 335 L 265 335 L 264 335 L 264 309 L 248 309 Z M 75 393 L 60 397 L 48 404 Q 31 416 26 439 L 26 459 L 28 467 Q 32 477 38 485 Q 47 495 61 501 L 71 504 L 80 504 L 81 505 Q 84 503 92 504 L 105 500 L 121 489 L 129 479 L 133 471 L 137 457 L 137 442 L 135 433 Q 132 421 125 414 Q 117 404 106 398 L 89 393 L 75 393 Z M 249 393 Q 230 396 219 407 L 208 420 L 202 434 L 200 444 L 200 455 L 202 465 Q 205 476 212 484 Q 221 495 236 501 L 246 504 L 255 504 L 256 505 Q 259 503 267 504 L 277 501 L 291 493 Q 300 485 306 475 L 310 465 L 312 455 Q 313 425 298 412 Q 289 401 276 396 L 264 393 L 249 393 Z M 424 393 Q 406 396 396 405 Q 379 417 375 442 L 375 457 L 377 466 L 383 479 L 391 489 L 406 499 L 421 504 L 430 504 L 431 505 Q 434 503 441 504 L 452 501 L 467 492 Q 481 480 486 459 L 486 439 L 485 435 L 475 415 Q 466 403 453 397 L 438 393 L 424 393 Z " /><path fill="rgb(0,0,0)" stroke="rgb(0,0,0)" stroke-width="1" opacity="0" d="M 253.5 87 Q 286.1 88.4 302 106.5 Q 311 115.5 316 128.5 L 320 144.5 L 320 157.5 L 318 168.5 L 311 184.5 L 295.5 202 Q 286.7 209.2 274.5 213 L 265.5 215 L 246.5 215 Q 218.8 209.7 205 190.5 L 194 168.5 L 192 158.5 L 192 144.5 L 194 134.5 L 199 121.5 L 211.5 105 Q 220.8 96.3 233.5 91 L 253.5 87 Z " /><path fill="rgb(0,0,0)" stroke="rgb(0,0,0)" stroke-width="1" opacity="1" d="M 234.5 8 L 277.5 8 L 282 11.5 L 291 38.5 L 293.5 41 L 308.5 47 L 335.5 33 L 340.5 33 L 371 62.5 Q 373.7 64.8 373 70.5 L 359 99.5 L 366.5 115 L 393.5 124 L 398 127.5 L 399 129.5 L 399 173.5 L 393.5 178 L 373.5 184 L 365 188.5 L 359 204.5 L 373 229.5 L 374 234.5 L 372 238.5 L 343.5 267 L 336.5 268 L 308.5 254 Q 301.5 259.4 292 261 L 284 287.5 L 280.5 293 L 276.5 295 L 235.5 295 L 230 290.5 L 221 262.5 L 218.5 260 L 203.5 254 L 176.5 268 L 171.5 268 L 140 237.5 L 139 231.5 L 153 202.5 L 145.5 187 L 118.5 178 L 113 173.5 L 113 129.5 L 115.5 127 L 147 115.5 L 153 99.5 L 140 74.5 L 139 67.5 L 170.5 35 L 174.5 34 L 202.5 48 L 205.5 48 L 221 40.5 L 229 14.5 L 232.5 9 L 234.5 8 Z M 249 87 L 233 91 L 217 100 Q 197 114 192 142 L 192 162 L 194 171 Q 198 183 206 193 Q 214 203 227 209 L 240 214 L 251 215 L 252 216 L 261 216 L 262 215 L 273 214 Q 287 210 298 201 Q 315 187 320 162 L 320 142 L 318 133 Q 314 120 307 112 Q 297 98 280 91 L 264 87 L 249 87 Z " /><path fill="rgb(0,0,0)" stroke="rgb(0,0,0)" stroke-width="1" opacity="1" d="M 249 309 L 263 309 L 263 334.5 L 263.5 335 L 406.5 335 Q 408 337.5 413.5 336 L 422.5 340 L 431 347.5 Q 436.4 353.6 438 363.5 L 438 378 L 424 378 L 424 366.5 L 422 359.5 L 416.5 353 L 410.5 350 L 263 350 L 263 377 L 249 377 L 249 350.5 L 248.5 350 L 101.5 350 Q 94.3 351.8 91 357.5 Q 86.5 365.3 88 378 L 74 378 L 74 363.5 Q 76.5 349 86.5 342 L 95.5 337 L 105.5 335 L 249 335 L 249 309 Z " /><path fill="rgb(0,0,0)" stroke="rgb(0,0,0)" stroke-width="1" opacity="1" d="M 80.5 393 Q 112.5 395 126 415.5 L 134 430.5 L 137 450.5 L 136 451.5 L 136 459.5 L 133 469.5 Q 127.5 482.5 117.5 491 Q 109.5 498.5 97.5 502 L 88.5 504 L 74.5 504 Q 49.3 499.7 37 482.5 Q 25.1 468.9 26 442.5 Q 29.9 419.4 44.5 407 L 60.5 397 L 70.5 394 L 79.5 394 L 80.5 393 Z " /><path fill="rgb(0,0,0)" stroke="rgb(0,0,0)" stroke-width="1" opacity="1" d="M 255.5 393 Q 259 395.5 266.5 394 L 276.5 397 Q 290.4 402.6 299 413.5 Q 305.5 421 309 431.5 L 311 440.5 L 311 457.5 L 308 468.5 L 303 478.5 L 296 488 L 285.5 496 L 272.5 502 L 263.5 504 L 248.5 504 Q 227.8 500.2 216 487.5 Q 206.4 477.6 202 462.5 L 201 457.5 L 201 440.5 Q 205.5 417 221.5 405 L 235.5 397 L 245.5 394 L 254.5 394 L 255.5 393 Z " /><path fill="rgb(0,0,0)" stroke="rgb(0,0,0)" stroke-width="1" opacity="1" d="M 429.5 393 L 441.5 394 L 451.5 397 Q 463.8 402.2 472 411.5 Q 479.9 420.1 484 432.5 L 486 442.5 L 486 455.5 Q 481.7 480.7 464.5 493 Q 455.8 499.8 443.5 503 L 423.5 504 Q 400 500 388 484.5 Q 375.7 471.3 375 446.5 L 378 430.5 L 381 423.5 Q 386.8 412.3 396.5 405 L 410.5 397 L 420.5 394 L 428.5 394 L 429.5 393 Z " /></svg>