<svg width="65" height="65" viewBox="0 0 65 65" fill="none" xmlns="http://www.w3.org/2000/svg">
<circle cx="32.5" cy="32.5" r="32.5" fill="#2A2828"/>
<path d="M32.0003 17.168C33.2601 17.168 34.4683 17.6684 35.3591 18.5592C36.2499 19.45 36.7503 20.6582 36.7503 21.918V31.418C36.7503 32.6777 36.2499 33.8859 35.3591 34.7767C34.4683 35.6675 33.2601 36.168 32.0003 36.168C30.7405 36.168 29.5324 35.6675 28.6416 34.7767C27.7508 33.8859 27.2503 32.6777 27.2503 31.418V21.918C27.2503 20.6582 27.7508 19.45 28.6416 18.5592C29.5324 17.6684 30.7405 17.168 32.0003 17.168ZM43.0837 31.418C43.0837 37.0071 38.9512 41.6146 33.5837 42.3905V47.2513H30.417V42.3905C25.0495 41.6146 20.917 37.0071 20.917 31.418H24.0837C24.0837 33.5176 24.9177 35.5312 26.4024 37.0159C27.8871 38.5006 29.9007 39.3346 32.0003 39.3346C34.1 39.3346 36.1136 38.5006 37.5983 37.0159C39.0829 35.5312 39.917 33.5176 39.917 31.418H43.0837Z" fill="white"/>
</svg>
