<svg width="65" height="65" viewBox="0 0 65 65" fill="none" xmlns="http://www.w3.org/2000/svg">
<circle cx="32.5" cy="32.5" r="32.5" fill="#2A2828"/>
<path d="M44.5556 32.5C44.5556 34.6817 43.9275 36.7167 42.8931 38.5133L40.621 36.2583C41.1197 35.1217 41.4153 33.8567 41.4153 32.5H44.5556ZM37.1667 32.7933L26.0833 21.83V21.5C26.0833 20.0413 26.6672 18.6424 27.7064 17.6109C28.7457 16.5795 30.1553 16 31.625 16C33.0947 16 34.5043 16.5795 35.5436 17.6109C36.5828 18.6424 37.1667 20.0413 37.1667 21.5V32.5V32.7933ZM17.346 17.8333L48.25 48.505L45.904 50.8333L38.1642 43.1517C36.7418 43.995 35.1532 44.5633 33.4722 44.82V50.8333H29.7778V44.82C23.7189 43.9217 18.6944 38.7517 18.6944 32.5H21.8347C21.8347 38 26.5267 41.85 31.625 41.85C33.1213 41.85 34.5806 41.5017 35.8921 40.8967L32.8257 37.8533L31.625 38C30.1553 38 28.7457 37.4205 27.7064 36.3891C26.6672 35.3576 26.0833 33.9587 26.0833 32.5V31.18L15 20.1617L17.346 17.8333Z" fill="#FFFDFD"/>
</svg>
