<svg width="65" height="65" viewBox="0 0 65 65" fill="none" xmlns="http://www.w3.org/2000/svg">
<circle cx="32.5" cy="32.5" r="32.5" fill="#FF4848"/>
<path d="M24.43 30.685C26.59 34.93 30.07 38.41 34.315 40.57L37.615 37.27C38.035 36.85 38.62 36.73 39.145 36.895C40.825 37.45 42.625 37.75 44.5 37.75C44.8978 37.75 45.2794 37.908 45.5607 38.1893C45.842 38.4706 46 38.8522 46 39.25V44.5C46 44.8978 45.842 45.2794 45.5607 45.5607C45.2794 45.842 44.8978 46 44.5 46C37.737 46 31.251 43.3134 26.4688 38.5312C21.6866 33.749 19 27.263 19 20.5C19 20.1022 19.158 19.7206 19.4393 19.4393C19.7206 19.158 20.1022 19 20.5 19H25.75C26.1478 19 26.5294 19.158 26.8107 19.4393C27.092 19.7206 27.25 20.1022 27.25 20.5C27.25 22.375 27.55 24.175 28.105 25.855C28.27 26.38 28.15 26.965 27.73 27.385L24.43 30.685Z" fill="white"/>
</svg>
