<svg width="65" height="65" viewBox="0 0 65 65" fill="none" xmlns="http://www.w3.org/2000/svg">
<circle cx="32.5" cy="32.5" r="32.5" fill="#2A2828"/>
<g clip-path="url(#clip0_1021_5)">
<path d="M18.1167 17L16 19.1167L20.55 23.6667H19.3333C18.8913 23.6667 18.4674 23.8423 18.1548 24.1548C17.8423 24.4674 17.6667 24.8913 17.6667 25.3333V42C17.6667 42.442 17.8423 42.866 18.1548 43.1785C18.4674 43.4911 18.8913 43.6667 19.3333 43.6667H39.3333C39.6667 43.6667 39.9833 43.5333 40.2333 43.3667L45.55 48.6667L47.6667 46.55M47.6667 24.5L41 31.1667V25.3333C41 24.8913 40.8244 24.4674 40.5118 24.1548C40.1993 23.8423 39.7754 23.6667 39.3333 23.6667H29.0333L47.6667 42.3V24.5Z" fill="white"/>
</g>
<defs>
<clipPath id="clip0_1021_5">
<rect width="42" height="42" fill="white" transform="translate(11 12)"/>
</clipPath>
</defs>
</svg>
