<svg width="65" height="65" viewBox="0 0 65 65" fill="none" xmlns="http://www.w3.org/2000/svg">
<circle cx="32.5" cy="32.5" r="32.5" fill="#2A2828"/>
<path d="M41.75 30.375V24.25C41.75 23.7859 41.5656 23.3408 41.2374 23.0126C40.9093 22.6844 40.4641 22.5 40 22.5H19C18.5359 22.5 18.0908 22.6844 17.7626 23.0126C17.4344 23.3408 17.25 23.7859 17.25 24.25V41.75C17.25 42.2141 17.4344 42.6593 17.7626 42.9874C18.0908 43.3156 18.5359 43.5 19 43.5H40C40.4641 43.5 40.9093 43.3156 41.2374 42.9874C41.5656 42.6593 41.75 42.2141 41.75 41.75V35.625L48.75 42.625V23.375L41.75 30.375ZM36.5 34.75H31.25V40H27.75V34.75H22.5V31.25H27.75V26H31.25V31.25H36.5V34.75Z" fill="white"/>
</svg>
