<svg width="1079" height="1083" viewBox="0 0 1079 1083" fill="none" xmlns="http://www.w3.org/2000/svg">
<rect width="1079" height="1083" rx="70" fill="#2A2828"/>
<path d="M539.523 170C513.196 170.078 487.745 179.464 467.677 196.496C447.609 213.528 434.218 237.108 429.874 263.061C357.423 288.095 295.792 337.276 255.327 402.35C214.861 467.424 198.023 544.43 207.639 620.444C208.769 629.414 213.134 637.664 219.915 643.648C226.696 649.632 235.428 652.94 244.473 652.95C246.04 652.962 247.605 652.863 249.157 652.653C258.935 651.42 267.823 646.356 273.866 638.574C279.91 630.792 282.613 620.93 281.383 611.156C274.155 554.014 286.216 496.096 315.652 446.58C345.089 397.064 390.218 358.784 443.887 337.807C453.803 354.582 467.955 368.459 484.924 378.049C501.894 387.639 521.087 392.605 540.581 392.451C560.074 392.296 579.186 387.026 596.001 377.168C612.816 367.31 626.746 353.21 636.395 336.28C646.044 319.349 651.074 300.183 650.981 280.699C650.888 261.214 645.676 242.096 635.867 225.258C626.057 208.421 611.995 194.454 595.086 184.756C578.178 175.058 559.017 169.97 539.523 170ZM539.523 318.6C532.172 318.6 524.985 316.421 518.873 312.339C512.76 308.257 507.996 302.455 505.183 295.667C502.37 288.879 501.634 281.409 503.068 274.203C504.502 266.996 508.042 260.377 513.24 255.181C518.439 249.986 525.062 246.447 532.272 245.014C539.482 243.58 546.955 244.316 553.747 247.128C560.539 249.94 566.344 254.701 570.428 260.811C574.512 266.92 576.692 274.103 576.692 281.45C576.692 291.303 572.776 300.752 565.806 307.719C558.835 314.686 549.381 318.6 539.523 318.6ZM390.846 578.65C390.846 608.04 399.566 636.771 415.903 661.208C432.239 685.645 455.46 704.691 482.627 715.939C509.794 727.186 539.688 730.128 568.528 724.395C597.369 718.661 623.861 704.508 644.654 683.726C665.446 662.944 679.607 636.466 685.343 607.64C691.08 578.815 688.136 548.936 676.883 521.783C665.63 494.63 646.573 471.422 622.124 455.094C597.674 438.765 568.929 430.05 539.523 430.05C500.091 430.05 462.275 445.706 434.392 473.574C406.51 501.442 390.846 539.239 390.846 578.65ZM613.862 578.65C613.862 593.345 609.502 607.71 601.333 619.929C593.165 632.147 581.555 641.671 567.971 647.294C554.388 652.918 539.441 654.389 525.02 651.522C510.6 648.655 497.354 641.579 486.958 631.188C476.561 620.797 469.481 607.558 466.613 593.145C463.745 578.732 465.217 563.793 470.843 550.217C476.47 536.64 485.998 525.036 498.223 516.872C510.448 508.708 524.82 504.35 539.523 504.35C559.239 504.35 578.147 512.178 592.088 526.112C606.029 540.046 613.862 558.944 613.862 578.65ZM316.507 913C331.296 912.986 345.932 910.022 359.559 904.28C373.186 898.539 385.529 890.136 395.864 879.565C469.813 914.953 554.203 921.913 632.956 899.119C711.709 876.325 779.319 825.37 822.905 755.963C866.49 686.556 883.005 603.548 869.302 522.754C855.599 441.961 812.637 369.03 748.6 317.857C740.891 311.862 731.13 309.14 721.429 310.281C711.728 311.423 702.866 316.335 696.761 323.956C690.655 331.576 687.796 341.293 688.803 351.004C689.809 360.715 694.6 369.64 702.139 375.848C752.241 415.585 785.898 472.414 796.65 535.431C807.401 598.449 794.491 663.215 760.395 717.302C726.3 771.389 673.422 810.986 611.907 828.495C550.393 846.005 484.576 840.193 427.086 812.175C429.171 789.841 424.447 767.399 413.534 747.798C402.621 728.198 386.03 712.356 365.942 702.355C345.854 692.353 323.208 688.661 300.981 691.762C278.754 694.863 257.986 704.613 241.406 719.731C224.826 734.848 213.21 754.626 208.085 776.464C202.96 798.302 204.565 821.18 212.69 842.089C220.816 862.998 235.08 880.961 253.609 893.617C272.138 906.274 294.065 913.03 316.507 913ZM316.507 764.4C323.859 764.4 331.045 766.579 337.158 770.661C343.27 774.743 348.034 780.545 350.847 787.333C353.661 794.122 354.397 801.591 352.963 808.798C351.528 816.004 347.988 822.623 342.79 827.819C337.592 833.015 330.969 836.553 323.759 837.986C316.549 839.42 309.075 838.684 302.283 835.872C295.492 833.06 289.687 828.299 285.602 822.189C281.518 816.08 279.338 808.898 279.338 801.55C279.338 791.697 283.254 782.248 290.225 775.281C297.195 768.314 306.65 764.4 316.507 764.4Z" fill="#FFE364"/>
</svg>
