<svg width="1079" height="1083" viewBox="0 0 1079 1083" fill="none" xmlns="http://www.w3.org/2000/svg">
<rect width="1079" height="1083" rx="70" fill="#FFE364"/>
<path d="M548.024 128C520.241 128.082 493.383 137.999 472.205 155.994C451.027 173.989 436.895 198.901 432.311 226.321C355.853 252.77 290.814 304.732 248.11 373.484C205.406 442.237 187.637 523.596 197.785 603.906C198.978 613.384 203.584 622.1 210.74 628.422C217.896 634.745 227.11 638.239 236.657 638.25C238.309 638.263 239.961 638.158 241.599 637.936C251.918 636.633 261.298 631.283 267.675 623.061C274.053 614.839 276.906 604.42 275.607 594.094C267.98 533.721 280.708 472.529 311.772 420.214C342.837 367.9 390.461 327.456 447.098 305.292C457.563 323.016 472.498 337.677 490.406 347.809C508.314 357.942 528.568 363.189 549.14 363.025C569.712 362.862 589.88 357.294 607.626 346.879C625.371 336.463 640.071 321.567 650.254 303.679C660.436 285.792 665.744 265.542 665.647 244.956C665.549 224.371 660.049 204.172 649.697 186.382C639.345 168.592 624.504 153.836 606.661 143.59C588.817 133.344 568.597 127.968 548.024 128ZM548.024 285C540.266 285 532.683 282.698 526.232 278.385C519.782 274.072 514.754 267.942 511.785 260.77C508.816 253.598 508.04 245.707 509.553 238.093C511.067 230.479 514.802 223.485 520.288 217.996C525.774 212.507 532.763 208.769 540.372 207.254C547.981 205.74 555.868 206.517 563.035 209.488C570.202 212.459 576.329 217.489 580.639 223.944C584.949 230.399 587.249 237.987 587.249 245.75C587.249 256.16 583.117 266.143 575.76 273.504C568.404 280.865 558.427 285 548.024 285ZM391.124 559.75C391.124 590.802 400.326 621.156 417.567 646.975C434.807 672.793 459.312 692.916 487.981 704.799C516.651 716.682 548.198 719.791 578.634 713.733C609.069 707.675 637.026 692.723 658.969 670.766C680.912 648.809 695.855 620.834 701.909 590.379C707.963 559.924 704.856 528.357 692.981 499.669C681.105 470.981 660.995 446.461 635.193 429.209C609.391 411.958 579.056 402.75 548.024 402.75C506.412 402.75 466.504 419.291 437.079 448.734C407.655 478.177 391.124 518.111 391.124 559.75ZM626.474 559.75C626.474 575.276 621.873 590.453 613.253 603.362C604.633 616.272 592.381 626.333 578.046 632.275C563.711 638.216 547.937 639.771 532.719 636.742C517.502 633.713 503.523 626.236 492.552 615.258C481.58 604.279 474.109 590.292 471.082 575.065C468.055 559.837 469.608 544.053 475.546 529.709C481.484 515.365 491.539 503.105 504.44 494.48C517.341 485.854 532.508 481.25 548.024 481.25C568.83 481.25 588.785 489.521 603.497 504.242C618.209 518.964 626.474 538.931 626.474 559.75ZM312.675 913C328.28 912.985 343.726 909.853 358.107 903.787C372.487 897.721 385.513 888.844 396.42 877.675C474.459 915.064 563.517 922.417 646.625 898.335C729.733 874.252 801.082 820.417 847.079 747.086C893.075 673.755 910.503 586.055 896.042 500.695C881.582 415.334 836.243 338.281 768.665 284.215C760.529 277.881 750.229 275.005 739.991 276.211C729.753 277.417 720.402 282.607 713.958 290.658C707.515 298.71 704.498 308.976 705.56 319.236C706.622 329.496 711.678 338.925 719.633 345.484C772.507 387.467 808.025 447.509 819.372 514.088C830.718 580.668 817.093 649.095 781.112 706.239C745.131 763.384 689.328 805.219 624.412 823.718C559.495 842.218 490.038 836.077 429.369 806.475C431.569 782.879 426.584 759.169 415.067 738.46C403.551 717.751 386.043 701.014 364.843 690.447C343.644 679.881 319.746 675.979 296.289 679.256C272.833 682.533 250.916 692.834 233.419 708.806C215.922 724.778 203.664 745.673 198.255 768.746C192.847 791.819 194.541 815.989 203.116 838.08C211.69 860.172 226.744 879.15 246.297 892.522C265.851 905.893 288.991 913.032 312.675 913ZM312.675 756C320.433 756 328.016 758.302 334.467 762.615C340.917 766.928 345.945 773.058 348.914 780.23C351.883 787.402 352.659 795.294 351.146 802.907C349.632 810.521 345.896 817.515 340.411 823.004C334.925 828.493 327.936 832.231 320.327 833.746C312.718 835.26 304.831 834.483 297.664 831.512C290.496 828.541 284.37 823.511 280.06 817.056C275.75 810.601 273.45 803.013 273.45 795.25C273.45 784.84 277.582 774.857 284.938 767.496C292.294 760.135 302.271 756 312.675 756Z" fill="#2A2828"/>
</svg>
